<?xml version="1.0" encoding="UTF-8" standalone="no"?>
<svg width="1186px" height="554px" viewBox="0 0 1186 554" version="1.1" xmlns="http://www.w3.org/2000/svg" xmlns:xlink="http://www.w3.org/1999/xlink">
    <!-- Generator: sketchtool 41.2 (35397) - http://www.bohemiancoding.com/sketch -->
    <title>0C3FE253-A9E3-4012-9305-5AC28D53E237</title>
    <desc>Created with sketchtool.</desc>
    <defs>
        <polygon id="path-1" points="0 0.22265625 1442 0.22265625 1440 270.398438 0 553.867187"></polygon>
        <rect id="path-3" x="0" y="0" width="1080" height="748"></rect>
    </defs>
    <g id="Page-1" stroke="none" stroke-width="1" fill="none" fill-rule="evenodd">
        <g id="prestashop_home_hover" transform="translate(-254.000000, -149.000000)">
            <g id="graph" transform="translate(254.000000, 149.000000)">
                <mask id="mask-2" fill="white">
                    <use xlink:href="#path-1"></use>
                </mask>
                <use id="Mask" fill="#F7F7F7" xlink:href="#path-1"></use>
                <g opacity="0.5" mask="url(#mask-2)">
                    <g transform="translate(487.000000, 317.000000) scale(-1, 1) rotate(-15.000000) translate(-487.000000, -317.000000) translate(-53.000000, -57.000000)">
                        <mask id="mask-4" fill="white">
                            <use xlink:href="#path-3"></use>
                        </mask>
                        <g id="Mask" stroke="none" fill="none"></g>
                        <g id="graph" stroke="none" stroke-width="1" fill="none" fill-rule="evenodd" mask="url(#mask-4)">
                            <g transform="translate(718.000000, 509.500000) rotate(-21.000000) translate(-718.000000, -509.500000) translate(-640.000000, 21.000000)" id="Shape" stroke-width="2">
                                <path d="M13.9647431,760.236193 C13.9647431,760.236193 263.655898,556.651142 459.178033,569.659792 C576.858647,577.487992 543.883387,566.180772 660.160374,582.828863 C714.407372,590.593867 757.762165,477.043648 811.041889,465.70564 C855.601212,456.223002 994.31299,509.012713 1039.85618,514.646878 C1180.52076,532.045219 1177.5957,419.630907 1319.88955,419.434837 C1390.39936,419.337612 1441.86566,494.913527 1510.4011,487.140421 C1566.09653,480.822443 1595.71038,444.855827 1667.95897,426.626216 C1718.82631,413.79095 1817.07019,453.435897 1859.18727,451.381217 C1914.34513,448.689716 1922.50806,360.999618 1965.05652,343.961008 C2010.316,325.835104 2036.57177,404.998606 2124.64848,426.626216 C2187.43669,442.042795 2228.71093,227.741974 2293.66763,220.288089 C2343.99908,214.514568 2418.86909,375.100424 2465.58197,391.353135 C2546.95579,419.664935 2527.51573,299.694652 2527.51573,299.694652 L2611.4695,906.701797 C2611.4695,906.701797 21.5967529,972.714053 13.9647431,976.839617 C6.33107419,980.96518 -6.38949514,760.236193 3.78762398,760.236193 L13.9647431,760.236193 L13.9647431,760.236193 Z" stroke-opacity="0.6" stroke="#F7AE30" fill-opacity="0.6" fill="#FFE0AA"></path>
                                <path d="M187.481979,636.845621 C192.466013,635.568562 444.901373,505.197471 567.428313,512.219635 C625.84637,515.566523 842.062866,597.24188 923.469864,551.251187 C1004.87686,505.260495 1124.49534,399.805313 1232.48496,426.633493 C1340.47458,453.461674 1609.30881,500.878691 1675.76205,466.386501 C1742.2186,431.892653 1907.11149,276.650432 2010.00757,298.245989 C2070.49623,310.941941 2149.56219,389.588845 2250.90698,353.817938 C2352.25012,318.045372 2370.5238,-23.0387189 2431.99632,1.23534441 C2493.46719,25.5077492 2649.6347,825.9216 2649.6347,825.9216 L332.02063,825.9216 L187.481979,636.845621 L187.481979,636.845621 Z" stroke-opacity="0.8" stroke="#5FB96E" fill-opacity="0.8" fill="#B5E3BC"></path>
                                <path d="M147.657645,757.587359 C152.671543,756.1544 426.715446,657.296801 540.344457,714.606876 C653.973469,771.915292 747.364381,738.98045 882.714757,681.670375 C1018.06679,624.361959 1071.7248,561.313413 1143.57851,564.177673 C1215.43056,567.043592 1285.99015,656.585297 1376.22374,635.094226 C1466.45898,613.603156 1520.70266,531.821654 1678.82629,551.284358 C1836.95158,570.745403 1864.89469,612.173513 1966.82681,596.412621 C2068.75728,580.653387 2165.75017,289.795842 2249.30243,286.958119 C2332.85136,284.122054 2456.98932,428.791225 2533.85693,454.579515 C2610.72289,480.369463 2715.99485,426.643445 2715.99485,426.643445 L2704.29962,945.349793 C2704.29962,945.349793 201.129828,941.052573 204.471321,945.349793 C207.814473,949.64867 147.657645,757.587359 147.657645,757.587359 L147.657645,757.587359 Z" stroke-opacity="0.6" stroke="#E97171" fill="#FFDDDD"></path>
                            </g>
                        </g>
                    </g>
                </g>
            </g>
        </g>
    </g>
</svg>